<svg version="1.2" xmlns="http://www.w3.org/2000/svg" viewBox="0 0 1200 360" width="1200" height="360">
	<title>Vector Smart Object-ai</title>
	<style>
		.s0 { fill: #83a6e4 } 
		.s1 { fill: #d3d3d3 } 
	</style>
	<g id="Слой 1">
		<g id="&lt;Group&gt;">
			<g id="&lt;Group&gt;">
				<path id="&lt;Path&gt;" class="s0" d="m319.2 143.3c-7.6 0.9-15.5 0.9-23.5-0.1-40.8-5.3-73.6-38.1-78.9-78.9-1-8-1-15.9-0.1-23.5 2.6-21.5-14.6-40.7-36.2-40.8q-0.3 0-0.5 0c-101.7 0-183.8 84.4-179.9 187 3.6 93.3 79.6 169.3 172.9 172.9 102.6 3.9 187-78.2 187-179.9q0-0.2 0-0.5c-0.1-21.6-19.3-38.8-40.8-36.2z"/>
			</g>
			<g id="&lt;Group&gt;">
				<path id="&lt;Path&gt;" class="s0" d="m293.7 113c17.6 2.8 34-2.6 46-12.8 8.4-7.2 10.7-19.6 5.6-29.4-12.1-23.6-31.2-43-54.7-55.5-11-5.8-24.5-3.2-32.2 6.6-9.4 11.8-14.1 27.5-11.5 44.3 3.8 23.7 23.1 43 46.8 46.8z"/>
			</g>
		</g>
		<g id="&lt;Group&gt;">
			<path id="&lt;Compound Path&gt;" class="s0" d="m457.3 215.4q-24.9 0-39.5-14.9l10.8-15q12 12.5 29.6 12.5 7.7 0 12-3 4.3-3 4.3-7.3 0-3.8-4-6.3-4-2.5-9.9-3.6-6-1.2-13-3.3-7-2-12.9-4.7-6-2.7-9.9-8.4-4-5.7-4-14 0-12 9.6-20.2 9.7-8.1 25.7-8.1 22.3 0 36.4 13l-11.1 14.5q-11-10.2-27.1-10.2-6.3 0-9.8 2.5-3.4 2.5-3.4 6.9 0 3.3 3.9 5.6 4 2.3 10 3.4 5.9 1.2 12.8 3.3 6.9 2.2 12.9 4.9 5.9 2.7 9.9 8.5 4 5.8 4 14 0 13.4-9.6 21.6-9.6 8.3-27.7 8.3z"/>
			<path id="&lt;Compound Path&gt;" class="s0" d="m537.2 215.4q-9.3 0-14.2-4.8-4.9-4.7-4.9-13.7v-35.2h-11.2v-15.5h11.2v-18.5h17.9v18.5h13.7v15.5h-13.7v30.5q0 3.2 1.6 5.3 1.7 2.1 4.5 2.1 4.2 0 6.2-2l3.7 13.4q-4.9 4.4-14.8 4.4z"/>
			<path id="&lt;Compound Path&gt;" fill-rule="evenodd" class="s0" d="m627.1 213.7h-17.7v-7q-7.3 8.7-21.4 8.7-9.1 0-16.3-6-7.2-5.9-7.2-16.4 0-10.9 7-16.4 7.1-5.4 16.5-5.4 14.4 0 21.4 8.2v-9q-0.1-5.2-4.1-8.3-4.1-3.1-10.8-3.1-11 0-19.7 8l-6.7-11.9q12-10.6 29.5-10.6 13 0 21.3 6 8.2 6 8.2 19.6zm-32-10.4q9.9 0 14.3-5.8v-8.4q-4.4-5.9-14.3-5.9-5.5 0-9.1 2.7-3.6 2.8-3.6 7.5 0 4.6 3.6 7.3 3.6 2.6 9.1 2.6z"/>
			<path id="&lt;Compound Path&gt;" class="s0" d="m669.5 213.7h-17.8v-67.5h17.8v9.2q3.7-4.8 9.6-7.8 5.9-3.1 11.9-3.1v17.3q-1.8-0.4-4.9-0.4-4.5 0-9.5 2.2-5 2.3-7.1 5.5z"/>
			<path id="&lt;Compound Path&gt;" class="s1" d="m755.6 215.4q-20.2 0-33.7-13.5-13.6-13.5-13.6-34.8 0-21.2 13.6-34.7 13.5-13.5 33.7-13.5 20.7 0 33.9 16.5l-6.7 4.3q-4.4-6.1-11.7-9.8-7.3-3.7-15.5-3.7-16.7 0-27.8 11.4-11.1 11.5-11.1 29.5 0 17.9 11.1 29.5 11.1 11.5 27.8 11.5 8.2 0 15.5-3.7 7.3-3.7 11.7-9.9l6.7 4.2q-13.4 16.7-33.9 16.7z"/>
			<path id="&lt;Compound Path&gt;" fill-rule="evenodd" class="s1" d="m841 215.4q-14.6 0-23.5-10.2-9-10.2-8.9-25.3-0.1-15.1 8.9-25.3 8.9-10.1 23.5-10.1 14.7 0 23.6 10.1 8.9 10.2 9 25.3-0.1 15.1-9 25.3-8.9 10.2-23.6 10.2zm0-6.6q11.4 0 18.1-8.5 6.6-8.4 6.6-20.4 0-11.9-6.6-20.4-6.7-8.4-18.1-8.4-11.3 0-18 8.4-6.6 8.5-6.6 20.4 0 11.8 6.6 20.4 6.7 8.5 18 8.5z"/>
			<path id="&lt;Compound Path&gt;" class="s1" d="m986.9 213.7h-7.2v-47.3q0-15.3-13.6-15.3-5.3 0-10.8 3.3-5.6 3.4-8.5 8.1v51.2h-7.4v-47.3q0-15.3-13.6-15.3-5.1 0-10.6 3.4-5.4 3.4-8.7 8.2v51h-7.2v-67.5h7.2v10.2q2.6-4.1 8.9-8 6.4-3.9 12.9-3.9 7.5 0 11.9 3.6 4.5 3.7 5.9 9.1 3.1-5 9.4-8.9 6.3-3.8 13-3.8 18.4 0 18.4 20.5z"/>
			<path id="&lt;Compound Path&gt;" fill-rule="evenodd" class="s1" d="m1047.3 215.4q-14.5 0-23.5-12.6v36.6h-7.2v-93.2h7.2v10.6q3.8-5.5 10-8.9 6.2-3.4 13.5-3.4 13.6 0 21.9 9.6 8.3 9.5 8.3 25.8 0 16-8.3 25.8-8.3 9.7-21.9 9.7zm-1.3-6.6q11.1 0 17.4-8.1 6.3-8.1 6.3-20.8 0-12.6-6.3-20.7-6.3-8.1-17.4-8.1-6.8 0-13 3.5-6.1 3.5-9.2 8.5v33.4q3.1 5 9.3 8.7 6.2 3.6 12.9 3.6z"/>
			<path id="&lt;Compound Path&gt;" fill-rule="evenodd" class="s1" d="m1153 213.7h-7.3v-8q-8.8 9.7-22.9 9.7-9.4 0-16.5-6.1-7.1-6.1-7.1-16.4 0-10.5 7-16.5 7.1-5.9 16.6-5.9 14.2 0 22.9 9.6v-13.7q0-7.2-5.2-11.4-5.1-4.1-13-4.1-12.4 0-21.1 9.9l-4-5q10.5-11.3 26-11.3 10.9 0 17.7 5.4 6.9 5.5 6.9 16.3zm-27.7-4.1q13.3 0 20.4-9.2v-14.8q-7.3-9.4-20.4-9.4-8.2 0-13.3 4.8-5.1 4.7-5.1 12 0 7.2 5.1 11.9 5.1 4.7 13.3 4.7z"/>
			<path id="&lt;Compound Path&gt;" class="s1" d="m1235.5 213.7h-7.3v-45.7q0-9.2-4.2-13.1-4.2-3.8-12.2-3.8-6.3 0-12.4 3.3-6.2 3.4-9.5 8.3v51h-7.3v-67.5h7.3v10.2q4-4.8 10.8-8.3 6.7-3.6 13.5-3.6 21.3 0 21.3 21.9z"/>
			<path id="&lt;Compound Path&gt;" class="s1" d="m1260.6 240.1l1.3-6.7q2.5 1.1 5.9 1.1 6.8 0 10.2-8.2l5.3-12.1-28.5-68h8.1l24.6 59 24.3-59h8.2l-34.9 82.3q-5.3 12.6-17.3 12.6-4 0-7.2-1z"/>
		</g>
	</g>
</svg>